<?xml version="1.0" standalone="no"?>
<!DOCTYPE svg PUBLIC "-//W3C//DTD SVG 20010904//EN"
 "http://www.w3.org/TR/2001/REC-SVG-20010904/DTD/svg10.dtd">
<svg version="1.0" xmlns="http://www.w3.org/2000/svg"
 width="52.000000pt" height="52.000000pt" viewBox="0 0 512.000000 512.000000"
 preserveAspectRatio="xMidYMid meet">

<g transform="translate(0.000000,512.000000) scale(0.100000,-0.100000)"
fill="#fff" stroke="none">
<path d="M2745 4987 c-56 -19 -81 -33 -127 -75 -65 -59 -88 -117 -112 -283
l-21 -147 -429 -467 c-496 -539 -534 -583 -570 -658 -65 -139 -49 -307 43
-441 l30 -44 -73 -4 c-55 -2 -80 -8 -95 -22 -27 -25 -28 -79 -1 -106 18 -18
33 -20 149 -20 115 0 130 -2 135 -17 2 -10 21 -70 40 -134 20 -63 36 -119 36
-122 0 -4 -109 -6 -242 -5 l-243 3 -5 440 c-3 242 -7 441 -8 443 -1 1 -17 11
-34 22 -32 19 -52 20 -498 20 -510 0 -493 2 -525 -60 -13 -24 -15 -96 -15
-450 l0 -420 -60 0 c-47 0 -64 -4 -80 -20 -25 -25 -26 -71 -1 -101 19 -23 24
-24 195 -27 l176 -3 50 -99 c28 -55 50 -103 50 -107 -1 -5 -29 -26 -63 -48
-123 -80 -256 -233 -331 -380 -290 -570 -6 -1266 600 -1473 170 -58 420 -68
590 -24 347 91 625 348 737 679 12 37 26 69 30 70 3 1 32 -10 64 -24 86 -40
179 -37 268 6 l67 33 26 -25 c48 -44 84 -55 304 -88 206 -31 219 -32 251 -17
l34 16 22 -52 c63 -152 215 -338 356 -435 99 -69 239 -134 345 -162 107 -27
308 -37 418 -19 417 67 755 373 858 779 108 423 -60 871 -421 1120 -255 176
-566 230 -869 151 -43 -12 -82 -17 -87 -13 -9 10 -289 648 -289 660 0 5 33 25
74 45 l73 37 21 -29 c12 -15 38 -34 58 -40 108 -36 204 78 204 239 -1 108 -56
198 -151 247 -72 36 -109 32 -134 -16 -22 -43 -4 -81 50 -108 58 -28 85 -72
84 -137 0 -42 -2 -47 -12 -32 -7 10 -17 26 -23 34 -6 9 -171 58 -433 128 -232
62 -424 114 -426 116 -2 2 -32 58 -68 124 l-65 120 67 68 c99 103 94 103 131
-8 17 -51 40 -105 50 -118 13 -16 82 -49 213 -102 216 -87 236 -89 263 -31 14
29 15 37 3 62 -12 25 -38 39 -189 99 l-175 71 -100 304 -101 303 24 29 c18 21
33 28 60 28 51 1 115 32 145 71 16 22 35 73 52 141 l27 107 52 -21 c104 -42
114 -43 144 -21 30 22 40 69 23 102 -7 13 -49 34 -112 58 -56 21 -103 45 -106
53 -30 97 -97 175 -181 212 -57 26 -162 33 -217 15z m164 -156 c36 -19 68 -48
60 -55 -10 -7 -249 10 -251 19 -2 16 83 55 120 55 18 0 50 -9 71 -19z m19
-207 c72 -6 70 -2 39 -119 l-22 -80 -61 3 -61 4 -37 -44 -38 -43 -54 60 -55
60 6 70 c10 112 1 105 118 99 56 -3 130 -7 165 -10z m-318 -351 c60 -68 95
-139 140 -285 l33 -108 -88 -82 c-48 -46 -91 -84 -95 -86 -3 -1 -25 37 -48 85
-46 97 -53 148 -27 210 23 54 19 88 -11 112 -49 38 -93 20 -126 -53 -18 -41
-23 -69 -23 -143 l0 -91 60 -116 60 -116 -165 -166 c-91 -91 -176 -174 -190
-184 l-26 -18 -149 133 c-83 73 -150 138 -150 144 0 12 735 819 747 820 3 1
30 -25 58 -56z m16 -938 c37 -68 77 -131 89 -139 11 -8 158 -50 326 -95 167
-45 318 -85 334 -89 30 -9 30 -9 -41 -45 -102 -52 -107 -68 -56 -188 22 -52
39 -95 37 -97 -6 -7 -462 -82 -482 -80 -18 3 -581 490 -599 520 -5 8 311 338
323 338 1 0 32 -56 69 -125z m-428 -387 c273 -242 503 -450 511 -461 12 -17
16 -123 22 -591 5 -314 10 -613 11 -663 l3 -93 100 -100 c55 -55 97 -100 93
-100 -3 0 -77 11 -164 25 -115 18 -163 29 -176 43 -15 15 -24 79 -58 421 -36
374 -41 406 -61 427 -36 38 -90 31 -114 -15 -11 -23 -11 -50 3 -189 8 -89 13
-164 11 -167 -3 -2 -23 0 -44 6 -22 6 -61 9 -87 7 l-47 -5 -14 46 c-8 25 -62
205 -122 399 -60 193 -106 354 -103 357 3 3 58 15 123 26 l117 20 53 -46 c51
-43 53 -47 60 -107 9 -76 33 -108 81 -108 24 0 38 8 54 27 19 25 21 36 15 98
-3 38 -8 82 -11 98 -4 21 -89 97 -392 348 -212 176 -398 337 -414 358 -74 101
-67 246 16 353 12 15 25 27 29 27 4 1 232 -198 505 -441z m-1678 114 c0 -145
2 -160 20 -180 35 -37 63 -37 128 -2 l58 33 42 -27 c67 -42 96 -44 132 -8 l30
30 0 156 0 156 90 0 90 0 0 -390 0 -390 -387 2 -388 3 -3 388 -2 387 95 0 95
0 0 -158z m260 78 c0 -44 -3 -80 -6 -80 -3 0 -14 5 -25 11 -14 7 -29 7 -50 0
l-29 -10 0 80 0 79 55 0 55 0 0 -80z m1185 -605 c39 -32 71 -61 73 -65 1 -4
-27 -11 -63 -16 l-66 -10 -24 81 c-30 96 -30 103 -7 83 9 -8 49 -41 87 -73z
m1436 -37 l22 -43 -269 -263 -269 -263 -6 258 c-3 142 -4 260 -2 262 2 2 114
23 251 47 136 23 248 42 249 43 2 1 12 -18 24 -41z m163 -375 c5 -16 -10 -30
-80 -78 -294 -200 -464 -522 -464 -880 l0 -90 -64 65 -65 65 -2 258 -3 258
299 291 299 292 37 -81 c20 -44 40 -89 43 -100z m-1840 155 c-12 -20 -125
-193 -128 -196 -2 -1 -45 18 -97 42 -208 99 -438 127 -659 81 -62 -13 -135
-34 -172 -50 -13 -5 -24 8 -53 64 l-35 71 575 0 c458 0 575 -3 569 -12z m191
-362 c42 -136 74 -250 72 -253 -3 -2 -18 20 -35 50 -40 71 -144 200 -194 239
-21 18 -36 38 -34 45 8 20 108 174 111 171 2 -2 38 -115 80 -252z m-674 140
c76 -16 214 -69 246 -94 l21 -17 -166 -257 c-143 -221 -170 -257 -187 -252
-11 3 -51 8 -88 11 l-68 5 -140 279 c-76 153 -139 280 -139 282 0 8 151 48
211 57 79 11 222 4 310 -14z m3043 -6 c171 -43 317 -131 442 -263 259 -274
316 -675 145 -1015 -242 -481 -852 -641 -1301 -341 -399 267 -517 795 -270
1211 53 89 171 213 261 274 38 26 71 45 73 43 3 -2 61 -132 129 -289 l125
-285 -23 -25 c-72 -76 -89 -205 -41 -303 29 -60 64 -95 130 -130 58 -31 174
-31 232 0 66 35 101 70 130 129 87 178 -42 394 -237 394 l-56 0 -126 288 -126
287 57 18 c128 40 316 43 456 7z m-3559 -390 l139 -279 -21 -23 c-69 -74 -86
-205 -39 -301 49 -101 131 -151 246 -152 65 0 82 4 129 30 58 32 105 82 123
133 l12 32 317 0 318 0 -6 -37 c-43 -308 -243 -579 -518 -704 -112 -50 -200
-70 -336 -76 -207 -9 -372 37 -539 148 -179 120 -300 286 -366 505 -25 80 -27
104 -27 239 0 121 4 165 21 227 44 162 125 299 245 417 60 58 140 121 156 121
4 0 69 -126 146 -280z m999 111 c114 -125 194 -303 220 -483 l5 -38 -314 0
-315 0 -19 38 -19 37 102 155 c55 86 134 206 175 268 l73 114 31 -29 c17 -15
44 -43 61 -62z m613 -440 c56 -26 70 -52 78 -148 7 -92 1 -110 -46 -144 -70
-49 -162 -43 -223 17 -85 83 -63 217 44 272 54 27 92 28 147 3z m-1216 -54
c64 -43 72 -132 18 -187 -70 -69 -181 -40 -208 55 -21 78 38 155 119 155 22 0
51 -9 71 -23z m3020 0 c112 -75 32 -251 -101 -222 -39 9 -86 56 -93 94 -15 75
46 151 123 151 22 0 51 -9 71 -23z"/>
<path d="M3795 2771 c-135 -63 -171 -230 -73 -337 56 -60 105 -77 217 -73 133
6 135 8 139 195 4 163 -4 196 -49 219 -42 22 -183 20 -234 -4z m135 -196 l0
-65 -38 0 c-45 0 -74 26 -74 65 0 39 29 65 74 65 l38 0 0 -65z"/>
</g>
</svg>
