<?xml version="1.0" standalone="no"?>
<!DOCTYPE svg PUBLIC "-//W3C//DTD SVG 20010904//EN"
 "http://www.w3.org/TR/2001/REC-SVG-20010904/DTD/svg10.dtd">
<svg version="1.0" xmlns="http://www.w3.org/2000/svg"
 width="52.000000pt" height="59.000000pt" viewBox="0 0 512.000000 512.000000"
 preserveAspectRatio="xMidYMid meet">

<g transform="translate(0.000000,512.000000) scale(0.100000,-0.100000)"
fill="#fff" stroke="none">
<path d="M549 4833 c-55 -34 -59 -52 -59 -291 l0 -221 34 -35 c18 -20 41 -36
50 -36 15 0 16 -11 14 -82 l-3 -83 -48 -7 c-143 -20 -262 -142 -287 -294 -6
-35 -10 -499 -10 -1147 l0 -1088 -61 -72 c-109 -129 -179 -312 -179 -467 0
-289 200 -567 490 -683 152 -60 73 -58 1815 -55 l1590 3 47 22 c66 30 143 106
173 168 15 32 27 81 31 124 4 42 11 71 18 71 6 0 145 -25 309 -54 310 -56 328
-57 383 -21 34 22 50 59 64 152 12 77 11 85 -9 125 -25 53 -57 73 -147 93
-168 39 -172 34 54 76 114 21 217 46 235 56 18 10 41 36 51 57 17 35 18 46 7
115 -14 93 -36 139 -80 168 -45 30 -63 29 -286 -12 -104 -19 -190 -33 -192
-31 -2 2 31 26 74 54 103 68 130 94 144 141 14 46 6 73 -47 168 -38 68 -80
103 -125 103 -14 0 -28 2 -30 5 -3 2 0 44 7 92 7 49 13 130 13 181 1 98 -11
138 -48 164 -19 14 -19 15 0 83 33 120 20 309 -28 381 -21 33 -114 65 -205 71
l-76 6 -7 46 c-16 111 -105 230 -212 284 -60 31 -162 51 -213 42 l-37 -6 -6
118 c-5 126 -24 205 -57 240 -33 37 -142 65 -250 65 -109 1 -196 -18 -281 -62
l-57 -29 -17 42 c-41 102 -139 233 -196 263 -33 17 -72 18 -102 3 -12 -6 -107
-96 -212 -200 l-190 -189 -45 30 c-130 86 -304 83 -430 -8 -53 -38 -55 -39
-88 -25 -46 19 -148 27 -199 15 l-41 -9 -4 181 c-3 174 -4 183 -32 243 -49
107 -153 186 -265 202 l-46 6 -3 76 -3 77 35 20 c66 39 71 55 74 256 5 229 0
257 -44 301 l-35 35 -347 0 c-303 0 -350 -3 -373 -17z m649 -285 l-3 -153
-277 -3 -278 -2 0 155 0 155 280 0 281 0 -3 -152z m-108 -383 l0 -75 -175 0
-175 0 0 75 0 75 175 0 175 0 0 -75z m188 -235 c60 -13 118 -60 143 -114 14
-31 19 -65 19 -138 l0 -98 -79 0 c-96 0 -131 -20 -131 -76 0 -59 26 -74 125
-74 l85 0 0 -31 c0 -20 -13 -49 -36 -80 -48 -66 -74 -144 -74 -224 0 -66 0
-67 -48 -113 -27 -26 -61 -74 -77 -107 -27 -54 -30 -70 -30 -157 0 -54 -3 -98
-6 -98 -3 0 -24 -16 -46 -35 l-41 -35 -346 0 -346 0 0 440 0 440 260 0 c247 0
261 1 280 20 30 30 27 83 -6 109 -25 20 -39 21 -282 21 l-255 0 5 103 c7 156
49 220 163 248 48 11 668 10 723 -1z m1656 -370 c51 -97 55 -131 19 -177 -16
-21 -36 -49 -44 -62 -14 -23 -20 -24 -98 -22 -74 2 -86 0 -107 -20 -34 -31
-32 -81 2 -108 20 -15 41 -21 80 -21 30 0 54 -4 54 -9 0 -30 -22 -58 -53 -69
l-36 -13 -63 64 c-43 44 -80 71 -119 87 -52 21 -57 26 -71 69 l-14 46 180 183
181 182 27 -32 c15 -18 43 -62 62 -98z m626 -100 c38 -10 53 -65 47 -181 -4
-106 -15 -134 -92 -248 -34 -50 -45 -59 -77 -64 -20 -3 -63 -17 -95 -33 -32
-15 -61 -28 -65 -28 -4 -1 -19 14 -33 33 l-25 35 95 97 c79 80 95 101 95 128
0 41 -31 71 -73 71 -28 0 -47 -14 -135 -103 l-104 -104 -46 15 c-26 8 -52 17
-59 18 -17 4 1 66 42 140 52 92 146 173 246 210 81 30 198 36 279 14z m-1320
-91 c72 -36 130 -124 130 -198 0 -44 25 -68 83 -81 66 -15 126 -55 151 -101
l19 -34 -27 -39 c-14 -21 -33 -63 -43 -92 l-17 -54 -223 0 c-241 0 -261 -4
-301 -55 l-19 -24 -54 28 c-85 46 -163 65 -269 65 -106 0 -193 -20 -235 -57
-18 -15 -32 -44 -44 -90 -19 -74 -26 -75 -56 -4 -42 101 7 232 107 283 42 22
49 44 42 132 -8 97 4 140 58 198 72 78 177 93 279 40 28 -14 59 -26 70 -26 11
0 45 24 78 54 91 84 179 102 271 55z m1668 -324 c29 -9 69 -30 89 -48 41 -36
83 -117 83 -163 0 -27 -5 -33 -52 -52 -29 -12 -77 -40 -107 -63 -54 -41 -77
-44 -87 -12 -3 10 -19 46 -36 81 -30 62 -80 112 -141 144 l-28 14 37 38 c66
68 148 88 242 61z m-896 -109 c20 -7 50 -24 66 -37 33 -27 82 -96 82 -116 0
-10 -49 -13 -235 -13 -264 0 -249 -6 -193 77 59 87 178 125 280 89z m561 -129
c47 -20 105 -89 112 -134 17 -98 26 -109 112 -132 80 -22 143 -101 143 -179
l0 -40 -55 -4 c-34 -3 -62 -12 -75 -23 -26 -24 -27 -78 0 -105 19 -19 33 -20
325 -20 l305 0 0 -53 c0 -68 -17 -204 -36 -288 l-15 -65 -200 -118 c-110 -65
-201 -117 -203 -115 -2 2 -13 24 -25 47 -72 142 -238 220 -386 183 -75 -19
-888 -331 -907 -348 -24 -22 -23 -78 2 -103 25 -25 56 -25 122 0 29 11 56 20
60 20 3 0 14 -43 23 -95 20 -110 41 -145 86 -145 34 0 79 39 79 67 0 10 -9 65
-20 122 -11 57 -19 106 -16 108 2 2 139 56 305 119 325 123 359 131 429 95 49
-25 78 -58 95 -106 8 -22 49 -231 92 -465 86 -472 86 -474 25 -544 -42 -48
-87 -66 -162 -66 l-64 0 -23 136 c-28 155 -43 184 -96 184 -39 0 -75 -31 -75
-65 0 -12 9 -70 20 -130 11 -60 20 -112 20 -117 0 -4 -58 -8 -128 -8 l-128 0
-16 91 c-18 101 -36 136 -74 145 -32 8 -76 -22 -84 -57 -4 -13 0 -55 7 -94 7
-38 13 -73 13 -77 0 -5 -135 -8 -299 -8 l-299 0 -23 127 c-25 139 -44 173 -94
173 -31 0 -75 -41 -75 -69 0 -11 9 -67 20 -123 11 -57 20 -104 20 -105 0 -2
-207 -3 -460 -3 -506 0 -499 -1 -556 61 -79 85 -70 226 18 292 28 21 314 137
338 137 4 0 13 -30 20 -66 16 -81 37 -106 87 -102 25 2 42 11 55 29 19 25 19
29 4 109 -9 46 -13 87 -9 91 5 3 102 42 217 85 115 43 219 87 232 97 48 37 18
127 -43 127 -12 0 -68 -18 -124 -40 -102 -39 -119 -41 -119 -15 0 7 -20 53
-45 102 -65 130 -196 266 -309 319 -19 10 -37 27 -40 39 -15 61 -94 113 -213
141 -51 12 -100 15 -199 11 l-132 -4 -6 37 c-8 50 -35 73 -83 68 l-38 -3 -7
55 c-3 30 -6 83 -7 118 l-1 62 1235 0 c1222 0 1235 0 1255 20 25 25 26 81 2
103 -10 9 -32 19 -48 23 l-30 6 29 81 c21 60 30 108 34 179 6 94 5 98 -21 133
-15 19 -38 38 -51 41 -36 9 -31 22 18 44 49 23 115 25 160 7z m815 -150 c14
-15 17 -36 17 -125 0 -91 -3 -115 -24 -159 l-23 -53 -101 0 -100 0 42 45 c48
52 52 85 16 120 -31 32 -66 32 -105 -2 -26 -21 -33 -24 -41 -12 -5 8 -9 19 -9
25 0 6 -14 30 -31 54 -34 47 -35 44 36 82 73 39 116 48 213 45 72 -2 96 -7
110 -20z m-2626 -32 c75 -15 137 -48 197 -103 31 -29 46 -54 66 -115 14 -42
25 -80 25 -82 0 -3 -23 -5 -52 -5 -50 0 -53 2 -124 70 -61 60 -77 70 -107 70
-26 0 -41 -7 -56 -26 -25 -32 -26 -46 -6 -84 l16 -30 -85 0 -84 0 -11 32 c-24
70 -26 218 -2 256 18 29 128 37 223 17z m1555 -57 c-6 -62 -38 -162 -68 -212
l-21 -36 -77 0 -77 0 -57 55 c-41 40 -64 55 -85 55 -40 0 -72 -33 -72 -75 0
-32 -3 -35 -28 -35 -16 0 -37 9 -47 20 -11 12 -31 20 -52 20 -20 0 -41 -8 -53
-20 -13 -13 -33 -20 -56 -20 -32 0 -36 2 -31 22 11 41 -28 87 -76 88 -21 0
-42 -14 -84 -55 l-55 -56 -76 3 c-74 3 -77 4 -94 35 -29 48 -57 137 -67 203
l-8 60 595 0 595 0 -6 -52z m-2041 -119 c22 -23 74 -61 101 -73 1 -1 4 -13 8
-29 l7 -27 -131 0 c-94 0 -131 3 -131 12 0 39 80 148 109 148 4 0 20 -14 37
-31z m-290 -71 c-3 -13 -6 -31 -6 -40 0 -10 -12 -19 -32 -24 -44 -9 -76 -32
-94 -65 -22 -44 -18 -208 11 -375 l5 -31 -112 -6 c-118 -6 -184 -22 -249 -63
-40 -25 -79 -69 -79 -90 0 -7 -9 -18 -20 -24 -20 -11 -20 -8 -20 358 0 203 3
372 7 375 3 4 139 7 301 7 l294 0 -6 -22z m3613 -714 c12 -19 21 -39 21 -43 0
-4 -110 -81 -245 -171 -171 -114 -247 -170 -251 -186 -9 -37 0 -66 27 -86 l26
-20 383 71 c211 39 386 69 388 66 5 -5 22 -79 18 -82 -1 -1 -173 -34 -381 -72
-354 -65 -382 -72 -402 -96 -13 -14 -23 -35 -23 -45 0 -10 10 -30 23 -44 19
-23 58 -34 305 -91 156 -36 284 -65 285 -65 9 0 -8 -83 -18 -86 -15 -6 -626
103 -636 113 -14 16 -102 526 -93 540 6 10 538 331 551 333 0 0 10 -16 22 -36z
m-3605 -2 l58 -21 57 20 c103 38 285 37 388 -2 l28 -11 -32 -13 c-18 -8 -53
-17 -78 -20 -101 -16 -125 -81 -57 -157 l37 -41 -39 7 c-66 12 -140 44 -212
91 -38 25 -79 45 -92 45 -12 0 -49 -18 -81 -40 -69 -47 -156 -85 -221 -95
l-45 -7 43 44 c73 76 54 127 -60 153 -94 21 -108 29 -80 44 70 37 286 39 386
3z m-461 -156 c30 -13 37 -21 32 -34 -4 -9 -10 -38 -12 -64 -5 -45 -3 -50 34
-87 30 -31 49 -41 88 -46 71 -11 183 16 292 71 l92 46 28 -20 c83 -59 270
-112 344 -98 53 10 101 46 117 88 13 33 13 43 0 82 l-15 44 45 21 44 22 65
-42 c84 -55 166 -147 208 -234 57 -118 77 -98 -193 -199 -310 -117 -351 -136
-406 -186 -65 -60 -98 -134 -104 -229 -4 -72 6 -119 43 -203 7 -17 -9 -18
-256 -18 -306 0 -361 8 -489 71 -110 54 -230 170 -278 270 -105 217 -71 447
92 626 55 60 171 148 185 140 3 -2 23 -11 44 -21z"/>
<path d="M2734 3528 c-80 -73 -89 -125 -30 -163 35 -23 61 -12 124 48 59 58
69 100 32 137 -33 33 -74 26 -126 -22z"/>
<path d="M1747 3196 c-92 -25 -166 -114 -170 -205 -1 -36 3 -47 26 -67 16 -13
37 -24 47 -24 29 0 66 41 79 88 10 35 19 46 46 58 36 15 54 12 97 -18 38 -26
86 -20 111 14 63 85 -100 191 -236 154z"/>
<path d="M2135 3011 c-117 -30 -195 -151 -135 -211 28 -28 75 -26 105 5 14 13
25 28 25 33 0 14 48 32 67 25 10 -3 32 -22 49 -41 71 -82 170 -11 120 86 -39
76 -148 124 -231 103z"/>
<path d="M2241 2554 c-24 -30 -26 -43 -10 -77 15 -33 49 -47 115 -47 108 0
156 57 103 124 -19 24 -26 26 -104 26 -78 0 -85 -2 -104 -26z"/>
<path d="M3010 2560 c-25 -25 -26 -71 -1 -101 17 -22 27 -24 100 -24 69 0 83
3 102 22 30 30 30 80 0 105 -35 27 -173 26 -201 -2z"/>
</g>
</svg>
