<?xml version="1.0" standalone="no"?>
<!DOCTYPE svg PUBLIC "-//W3C//DTD SVG 20010904//EN"
 "http://www.w3.org/TR/2001/REC-SVG-20010904/DTD/svg10.dtd">
<svg version="1.0" xmlns="http://www.w3.org/2000/svg"
 width="52.000000pt" height="52.000000pt" viewBox="0 0 512.000000 512.000000"
 preserveAspectRatio="xMidYMid meet">

<g transform="translate(0.000000,512.000000) scale(0.100000,-0.100000)"
fill="#fff" stroke="none">
<path d="M2181 5109 c-217 -19 -351 -59 -457 -134 -152 -109 -244 -289 -244
-478 l0 -80 -63 -66 c-190 -202 -387 -506 -576 -890 -231 -469 -419 -990 -638
-1766 l-68 -240 0 -625 0 -625 31 -55 c119 -211 426 -194 528 29 18 41 21 69
24 259 4 186 6 213 19 208 122 -47 246 -23 333 64 78 78 84 104 88 355 l4 220
141 110 c215 168 435 335 441 335 3 0 6 -80 6 -178 0 -214 10 -257 75 -330 60
-66 127 -95 221 -95 121 0 216 61 268 172 20 44 21 64 24 453 l3 408 92 64
c132 92 435 286 632 406 524 318 1014 557 1429 699 215 74 300 117 383 194
129 121 144 216 60 389 -49 102 -160 274 -225 347 -48 55 -91 61 -129 17 -32
-38 -29 -56 18 -116 57 -72 119 -162 119 -172 0 -4 -19 -8 -43 -8 -61 0 -150
-25 -221 -63 -57 -30 -177 -138 -202 -182 -11 -19 -21 -11 -130 96 -446 434
-1015 683 -1671 730 -226 16 -507 -4 -728 -52 -49 -10 -91 -19 -93 -19 -3 0
-2 27 1 60 12 134 113 277 239 339 120 59 368 87 683 78 691 -20 1333 -218
1764 -543 49 -37 95 -64 108 -64 32 0 73 43 73 76 0 83 -407 333 -741 456
-482 178 -1085 261 -1578 217z m273 -699 c355 -23 607 -87 891 -225 307 -150
594 -369 842 -645 57 -63 103 -117 103 -120 0 -3 -39 -20 -88 -39 -458 -177
-1082 -520 -1721 -946 -200 -133 -259 -177 -273 -205 -16 -32 -18 -69 -18
-434 0 -383 -1 -401 -21 -442 -38 -80 -137 -105 -210 -53 -52 37 -59 68 -59
267 0 164 -2 181 -23 222 -29 58 -92 93 -155 87 -36 -4 -67 -23 -197 -121
-296 -223 -485 -377 -500 -406 -12 -23 -15 -72 -15 -241 0 -196 -2 -216 -21
-256 -49 -100 -185 -109 -246 -16 -12 18 -20 55 -23 114 -5 66 -10 93 -24 108
-25 27 -79 28 -106 1 -19 -19 -20 -33 -20 -403 0 -377 0 -383 -23 -427 -48
-95 -160 -107 -237 -25 l-25 27 0 606 0 607 72 255 c128 454 238 786 368 1115
59 148 168 402 178 411 2 2 40 -14 83 -36 118 -59 187 -75 334 -74 99 0 141 5
204 22 289 82 476 300 476 552 0 234 -149 438 -391 535 l-78 32 37 36 c33 32
48 38 157 60 184 38 305 52 555 65 14 1 92 -3 174 -8z m-906 -322 c130 -49
250 -166 286 -282 14 -43 17 -78 14 -135 -6 -101 -39 -174 -115 -250 -176
-175 -486 -210 -711 -81 l-53 31 71 136 c90 173 221 389 312 516 l70 99 36 -7
c19 -4 60 -16 90 -27z m3236 -268 c39 -14 59 -53 51 -97 -10 -55 -112 -153
-190 -182 -126 -48 -228 -43 -268 11 -18 24 -19 32 -9 66 23 76 112 153 221
194 51 18 156 23 195 8z"/>
<path d="M2922 3920 c-96 -25 -152 -51 -226 -104 -76 -55 -124 -105 -168 -176
-136 -216 -112 -460 63 -645 l67 -70 -82 -49 c-109 -66 -126 -82 -126 -122 0
-37 37 -74 74 -74 11 0 66 28 121 62 426 262 800 462 1170 623 61 27 120 57
133 68 30 27 29 77 -1 105 -30 28 -52 28 -120 -2 l-55 -25 -37 77 c-76 155
-245 285 -431 332 -104 27 -280 27 -382 0z m352 -150 c166 -42 279 -136 340
-282 l16 -37 -223 -110 c-122 -61 -307 -158 -412 -216 -104 -58 -196 -105
-203 -105 -26 0 -138 124 -166 183 -49 105 -43 248 16 346 113 190 384 285
632 221z"/>
<path d="M2969 3621 c-25 -26 -30 -37 -24 -59 10 -41 34 -62 72 -62 90 0 99
125 11 146 -22 5 -34 0 -59 -25z"/>
<path d="M3349 3541 c-49 -40 -18 -131 46 -131 38 0 75 37 75 75 0 62 -72 96
-121 56z"/>
<path d="M1254 2816 c-185 -35 -332 -119 -421 -240 -49 -66 -53 -97 -18 -131
43 -44 69 -34 153 55 117 126 239 175 427 174 189 0 355 -79 445 -209 l30 -43
-188 -138 c-103 -76 -267 -203 -365 -282 l-178 -143 -59 36 c-71 43 -149 126
-180 192 -12 26 -28 81 -34 122 -9 56 -17 77 -35 92 -30 24 -62 24 -92 0 -21
-17 -24 -27 -22 -85 3 -153 91 -310 229 -412 35 -25 64 -49 63 -53 0 -3 -56
-53 -124 -111 -153 -130 -169 -157 -120 -205 48 -49 66 -39 266 131 390 333
786 637 1122 863 116 78 137 104 117 152 -11 25 -46 49 -72 49 -7 0 -54 -28
-106 -62 l-94 -62 -21 29 c-11 17 -52 62 -92 101 -80 80 -188 139 -306 168
-95 23 -239 28 -325 12z"/>
<path d="M1050 2240 c-30 -30 -27 -83 6 -109 15 -12 34 -21 44 -21 10 0 29 9
44 21 52 41 23 129 -44 129 -17 0 -39 -9 -50 -20z"/>
<path d="M1411 3914 c-27 -34 -26 -57 2 -88 46 -52 127 -25 127 42 0 67 -88
98 -129 46z"/>
<path d="M1398 3546 c-28 -21 -38 -58 -23 -92 31 -74 135 -50 135 31 0 57 -68
95 -112 61z"/>
</g>
</svg>
